<?xml version="1.0" encoding="utf-8"?>
<!-- Generator: Adobe Illustrator 27.5.0, SVG Export Plug-In . SVG Version: 6.00 Build 0)  -->
<svg version="1.1" xmlns="http://www.w3.org/2000/svg" xmlns:xlink="http://www.w3.org/1999/xlink" x="0px" y="0px"
	 viewBox="0 0 500 500" style="enable-background:new 0 0 500 500;" xml:space="preserve">
<g id="BACKGROUND">
	<rect style="fill:#FFFFFF;" width="500" height="500"/>
</g>
<g id="OBJECTS">
	<linearGradient id="SVGID_1_" gradientUnits="userSpaceOnUse" x1="123.105" y1="377.2119" x2="449.5895" y2="50.7274">
		<stop  offset="0.2485" style="stop-color:#646CD9"/>
		<stop  offset="0.9685" style="stop-color:#8A4BCC"/>
	</linearGradient>
	<path style="fill:url(#SVGID_1_);" d="M463.062,322.736c12.295-20.284,20.725-42.446,23.086-65.128
		c7.47-71.773-36.111-151.185-104.746-182.789c-51.976-23.934-113.7-25.257-169.278-13.558
		c-44.097,9.282-95.483,28.889-128.041,61.34c-29.167,29.071-59.923,53.264-66.157,97.148c-5.26,37.035,8.412,76.262,35.553,102.004
		c20.823,19.749,48.386,31.477,68.39,52.055c18.009,18.525,29.334,43.666,50.674,58.229c27.323,18.646,63.701,15.214,96.117,8.627
		c42.809-8.698,85.294-21.844,122.296-45.063C418.667,378.214,445.024,352.496,463.062,322.736z"/>
	<g>
		<g>
			<g>
				
					<linearGradient id="SVGID_00000000916464499892586210000000349282378264538538_" gradientUnits="userSpaceOnUse" x1="105.7621" y1="36.1119" x2="211.3119" y2="433.6067">
					<stop  offset="0" style="stop-color:#7BC6FF"/>
					<stop  offset="0.992" style="stop-color:#7691FF"/>
				</linearGradient>
				<path style="fill:url(#SVGID_00000000916464499892586210000000349282378264538538_);" d="M67.606,34.887l182.998,10.088
					c4.296,0.237,7.659,3.79,7.659,8.093v350.066c0,4.229-3.252,7.747-7.468,8.08l-182.998,14.43
					c-4.713,0.372-8.742-3.353-8.742-8.08V42.98C59.055,38.328,62.961,34.631,67.606,34.887z"/>
				
					<linearGradient id="SVGID_00000041269969688494593080000014617822784687190948_" gradientUnits="userSpaceOnUse" x1="120.8341" y1="393.5965" x2="161.3343" y2="287.2225">
					<stop  offset="0" style="stop-color:#7BC6FF;stop-opacity:0"/>
					<stop  offset="1" style="stop-color:#7691FF"/>
				</linearGradient>
				<path style="fill:url(#SVGID_00000041269969688494593080000014617822784687190948_);" d="M67.797,425.643l182.998-14.43
					c4.216-0.333,7.468-3.851,7.468-8.08V313.81c-8.337-4.087-17.493-6.888-26.11-9.789c-18.878-6.355-41.039-17.607-58.681-28.167
					c-17.642-10.56-29.482-46.791-46.869-67.582c-10.925-13.064-44.268-20.601-67.547-24.4v233.692
					C59.055,422.291,63.084,426.015,67.797,425.643z"/>
			</g>
			
				<linearGradient id="SVGID_00000155135201915544633120000011372870693332776838_" gradientUnits="userSpaceOnUse" x1="204.5976" y1="149.9082" x2="241.545" y2="114.8676">
				<stop  offset="0" style="stop-color:#7BC6FF;stop-opacity:0"/>
				<stop  offset="1" style="stop-color:#7691FF"/>
			</linearGradient>
			<path style="fill:url(#SVGID_00000155135201915544633120000011372870693332776838_);" d="M258.263,94.335l-40.803-2.249
				c0,0.01-0.001,0.019-0.001,0.029v41.664l-15.372,21.697l27.077-14.087l29.1,3.247V94.335z"/>
		</g>
		<g>
			<g>
				<defs>
					<path id="SVGID_00000073696204176655287850000001877772625077502855_" d="M298.361,218.83
						c-0.366-2.446-7.146-21.806-7.146-21.806l-10.604-11.561l-12.504,9.756l-5.551,14.212l-4.295,7.749V108.634
						c0-4.303-3.362-7.856-7.659-8.093L67.606,90.453c-4.645-0.256-8.551,3.441-8.551,8.093v319.017c0,4.727,4.029,8.452,8.742,8.08
						l182.998-14.43c4.216-0.333,7.468-3.851,7.468-8.08V251.971l6.617-11.534c0,0,25.613-2.795,25.43-3.818
						C290.127,235.597,298.727,221.277,298.361,218.83z"/>
				</defs>
				<clipPath id="SVGID_00000082326344345538000490000007988108494680511154_">
					<use xlink:href="#SVGID_00000073696204176655287850000001877772625077502855_"  style="overflow:visible;"/>
				</clipPath>
				
					<linearGradient id="SVGID_00000038379987520488748640000013125902214877763725_" gradientUnits="userSpaceOnUse" x1="123.6231" y1="121.8382" x2="110.4483" y2="251.7559">
					<stop  offset="0" style="stop-color:#432B99"/>
					<stop  offset="1" style="stop-color:#090051"/>
				</linearGradient>
				
					<path style="clip-path:url(#SVGID_00000082326344345538000490000007988108494680511154_);fill:url(#SVGID_00000038379987520488748640000013125902214877763725_);" d="
					M153.501,125.439c0,0-8.479-4.755-20.556-5.304c-12.077-0.549-32.571,14.822-36.78,20.494
					c-4.209,5.672-3.111,17.566-2.562,30.924c0.549,13.358-1.83,57.274-5.123,70.448c-3.294,13.175-12.077,58.006-14.273,69.533
					c-2.196,11.528,6.587,38.609,6.587,38.609l44.465-14.273l8.783-143.092L153.501,125.439z"/>
				<g style="clip-path:url(#SVGID_00000082326344345538000490000007988108494680511154_);">
					
						<linearGradient id="SVGID_00000081610019828246246140000012477321250713603722_" gradientUnits="userSpaceOnUse" x1="135.5295" y1="434.8271" x2="130.7719" y2="363.4638">
						<stop  offset="0" style="stop-color:#3C3D42"/>
						<stop  offset="1" style="stop-color:#2B2934"/>
					</linearGradient>
					<polygon style="fill:url(#SVGID_00000081610019828246246140000012477321250713603722_);" points="173.752,432.852 
						97.263,436.146 104.888,346.035 163.065,347.88 					"/>
				</g>
				<g style="clip-path:url(#SVGID_00000082326344345538000490000007988108494680511154_);">
					
						<linearGradient id="SVGID_00000073689605124414759680000009797811987291061678_" gradientUnits="userSpaceOnUse" x1="138.9725" y1="381.2511" x2="126.5298" y2="204.8558">
						<stop  offset="0" style="stop-color:#CB2371"/>
						<stop  offset="1" style="stop-color:#57236B"/>
					</linearGradient>
					<path style="fill:url(#SVGID_00000073689605124414759680000009797811987291061678_);" d="M145.51,208.271
						c0,0,12.926,30.622,15.673,38.672c2.747,8.05,5.138,73.761,5.138,73.761l4.928,46.031l-7.807,20.738l-21.836-30.985
						l-35.255,34.401l0.793-185.118L145.51,208.271z"/>
					
						<linearGradient id="SVGID_00000009559199333169015730000015829092633206347165_" gradientUnits="userSpaceOnUse" x1="141.2462" y1="315.8577" x2="148.8095" y2="274.8695">
						<stop  offset="0" style="stop-color:#57236B;stop-opacity:0"/>
						<stop  offset="1" style="stop-color:#57236B"/>
					</linearGradient>
					<path style="fill:url(#SVGID_00000009559199333169015730000015829092633206347165_);" d="M171.249,272.832
						c-1.457,0.481-27.817,9.73-27.817,9.73l-23.661-1.221l0.73,38.061l26.837-1.555l7.319-7.228l-1.158,7.228l15.306-0.462
						L171.249,272.832z"/>
					
						<linearGradient id="SVGID_00000153686028054390560240000009348726724350950026_" gradientUnits="userSpaceOnUse" x1="150.9887" y1="341.3735" x2="128.6533" y2="238.8336">
						<stop  offset="0" style="stop-color:#FFE8A0"/>
						<stop  offset="1" style="stop-color:#E0B06C"/>
					</linearGradient>
					<path style="fill:url(#SVGID_00000153686028054390560240000009348726724350950026_);" d="M133.067,239.988
						c0,0,2.318,34.279,2.318,42.33s-2.562,37.816-2.562,37.816l8.295,17.078l9.271-18.054c0,0-1.029-27.818-1.586-35.621
						c-0.732-10.247-6.465-44.038-6.465-44.038S138.13,237.61,133.067,239.988z"/>
					
						<linearGradient id="SVGID_00000062911776572454401190000008842568481552690875_" gradientUnits="userSpaceOnUse" x1="139.0328" y1="241.5666" x2="134.2679" y2="219.6917">
						<stop  offset="0" style="stop-color:#FFE8A0"/>
						<stop  offset="1" style="stop-color:#E0B06C"/>
					</linearGradient>
					<path style="fill:url(#SVGID_00000062911776572454401190000008842568481552690875_);" d="M126.907,221.69
						c0.549-0.183,5.493-1.096,5.493-1.096l10.06,0.913l-0.122,17.993c0,0-6.099-0.793-9.393,0.854L126.907,221.69z"/>
					
						<linearGradient id="SVGID_00000089563429592877415630000001475499374312711044_" gradientUnits="userSpaceOnUse" x1="126.4984" y1="232.6015" x2="117.5322" y2="201.1284">
						<stop  offset="0" style="stop-color:#CB2371"/>
						<stop  offset="1" style="stop-color:#57236B"/>
					</linearGradient>
					<path style="fill:url(#SVGID_00000089563429592877415630000001475499374312711044_);" d="M134.683,220.227l-10.521,15.553
						c0,0-12.809-22.324-17.017-30.009l6.583-1.097C113.728,204.674,125.165,217.114,134.683,220.227z"/>
					
						<linearGradient id="SVGID_00000072255466696254221560000016160407428335948930_" gradientUnits="userSpaceOnUse" x1="144.9834" y1="231.4009" x2="138.0626" y2="207.1075">
						<stop  offset="0" style="stop-color:#CB2371"/>
						<stop  offset="1" style="stop-color:#57236B"/>
					</linearGradient>
					<path style="fill:url(#SVGID_00000072255466696254221560000016160407428335948930_);" d="M134.683,220.227
						c0,0,7.167,6.221,12.656,12.442c0,0-0.244-19.152-1.83-24.398l-3.968-0.856C141.542,207.415,140.84,214.369,134.683,220.227z"
						/>
				</g>
				<g style="clip-path:url(#SVGID_00000082326344345538000490000007988108494680511154_);">
					
						<linearGradient id="SVGID_00000080207189324415785970000012020114829331462829_" gradientUnits="userSpaceOnUse" x1="113.7278" y1="202.8449" x2="143.0427" y2="202.8449">
						<stop  offset="0" style="stop-color:#FFDADB"/>
						<stop  offset="1" style="stop-color:#FFB8B9"/>
					</linearGradient>
					<path style="fill:url(#SVGID_00000080207189324415785970000012020114829331462829_);" d="M143.007,196.07
						c-0.955,2.704-1.352,9.275-1.447,10.948c-0.009,0.255-0.019,0.397-0.019,0.397c-0.53,7.931-6.858,12.811-6.858,12.811
						c-9.52-2.931-20.956-15.553-20.956-15.553c2.799-4.812,4.292-10.92,5.03-14.938c0.473-2.562,0.643-4.273,0.643-4.273
						S144.104,192.96,143.007,196.07z"/>
					
						<linearGradient id="SVGID_00000098195769531041825540000017918735681794660794_" gradientUnits="userSpaceOnUse" x1="124.2705" y1="183.0833" x2="139.9156" y2="206.4136">
						<stop  offset="0" style="stop-color:#FF6667"/>
						<stop  offset="1" style="stop-color:#FF6667;stop-opacity:0"/>
					</linearGradient>
					<path style="fill:url(#SVGID_00000098195769531041825540000017918735681794660794_);" d="M143.007,196.07
						c-0.955,2.704-1.352,9.275-1.447,10.948c-2.77,1.607-5.852,2.259-8.887,0.586c-4.519-2.496-10.286-11.562-13.916-17.868
						c0.473-2.562,0.643-4.273,0.643-4.273S144.104,192.96,143.007,196.07z"/>
					
						<linearGradient id="SVGID_00000047026109713688109660000009481853458300958119_" gradientUnits="userSpaceOnUse" x1="152.5852" y1="187.0857" x2="161.183" y2="187.0857">
						<stop  offset="0" style="stop-color:#432B99"/>
						<stop  offset="1" style="stop-color:#090051"/>
					</linearGradient>
					<path style="fill:url(#SVGID_00000047026109713688109660000009481853458300958119_);" d="M160.88,170.048
						c0,0,2.074,19.194-4.636,34.076c0,0-0.976-22.446-3.66-30.375L160.88,170.048z"/>
					
						<linearGradient id="SVGID_00000152955796020203529180000012570315929651540376_" gradientUnits="userSpaceOnUse" x1="111.3505" y1="164.5699" x2="165.3682" y2="164.5699">
						<stop  offset="0" style="stop-color:#FFDADB"/>
						<stop  offset="1" style="stop-color:#FFB8B9"/>
					</linearGradient>
					<path style="fill:url(#SVGID_00000152955796020203529180000012570315929651540376_);" d="M164.969,135.867
						c-1.012-2.297-5.19-5.852-9.87-7.8c-1.267-0.52-2.572-0.926-3.857-1.163c-0.441-0.08-0.987-0.094-1.599-0.061
						c-8.914,10.393-30.28,35.842-38.292,45.395c0.009,0.181,0.012,0.371,0.023,0.548c0.199,3.224,0.775,5.814,1.806,7.185
						c3.848,5.124,21.593,23.059,25.441,22.321c3.838-0.728,21.376-10.834,23.049-18.842c0.293-1.399,1.134-10.485,0.785-16.649
						c-0.057-1.078-0.151-2.061-0.293-2.902c-0.737-4.453,0.842-12.404,1.569-15.609c0.189-0.879,0.322-1.409,0.322-1.409
						S166.245,138.798,164.969,135.867z"/>
					<path style="fill:#200A72;" d="M149.002,161.626c0,0,2.791-1.83,5.673-0.869c0,0-3.843,0-5.81,1.418L149.002,161.626z"/>
					<path style="fill:#200A72;" d="M132.859,161.922c0,0,3.065-2.01,6.231-0.955c0,0-4.221,0-6.382,1.558L132.859,161.922z"/>
					
						<linearGradient id="SVGID_00000036941521654070335870000006157823429091344816_" gradientUnits="userSpaceOnUse" x1="146.2391" y1="128.9758" x2="125.0131" y2="174.8434">
						<stop  offset="0" style="stop-color:#FF6667"/>
						<stop  offset="1" style="stop-color:#FF6667;stop-opacity:0"/>
					</linearGradient>
					<path style="fill:url(#SVGID_00000036941521654070335870000006157823429091344816_);" d="M155.099,128.067
						c-1.267-0.52-2.572-0.926-3.857-1.163c-0.441-0.08-0.987-0.094-1.599-0.061c-8.914,10.393-30.28,35.842-38.292,45.395
						c0.009,0.181,0.012,0.371,0.023,0.548c1.324-0.227,3.006-0.785,5.105-1.721c21.593-9.634,41.352-35.009,41.352-35.009
						L155.099,128.067z"/>
					
						<linearGradient id="SVGID_00000157286341484224980320000012504592727462080440_" gradientUnits="userSpaceOnUse" x1="103.742" y1="170.0475" x2="115.5617" y2="170.0475">
						<stop  offset="0" style="stop-color:#FFDADB"/>
						<stop  offset="1" style="stop-color:#FFB8B9"/>
					</linearGradient>
					<path style="fill:url(#SVGID_00000157286341484224980320000012504592727462080440_);" d="M113.549,177.957
						c0,0-7.136-2.745-8.783-7.502c-1.647-4.758-1.647-8.966,2.562-8.234c4.209,0.732,8.234,4.941,8.234,4.941L113.549,177.957z"/>
					
						<linearGradient id="SVGID_00000080193071967508268000000008541923682493503903_" gradientUnits="userSpaceOnUse" x1="153.5013" y1="145.5504" x2="172.4864" y2="145.5504">
						<stop  offset="0" style="stop-color:#432B99"/>
						<stop  offset="1" style="stop-color:#090051"/>
					</linearGradient>
					<path style="fill:url(#SVGID_00000080193071967508268000000008541923682493503903_);" d="M172.466,148.318
						c-0.019,0.217-0.076,0.473-0.151,0.766c-2.231,5.956-9.861,17.717-9.861,17.717c-0.057-1.078-0.151-2.061-0.293-2.902
						c-0.737-4.443,0.832-12.375,1.569-15.59v-0.009c-0.898-7.731-5.899-12.243-5.899-12.243l-4.33-10.617c0,0,8.357-2.562,11.468,0
						C168.079,128.001,172.835,144.47,172.466,148.318z"/>
					
						<linearGradient id="SVGID_00000163755374920935520620000015990748608427387807_" gradientUnits="userSpaceOnUse" x1="110.8014" y1="182.7856" x2="121.1121" y2="182.7856">
						<stop  offset="0" style="stop-color:#432B99"/>
						<stop  offset="1" style="stop-color:#090051"/>
					</linearGradient>
					<path style="fill:url(#SVGID_00000163755374920935520620000015990748608427387807_);" d="M120.624,163.258
						c0,0-3.416,20.899,0.488,39.056c0,0-13.039-15.505-9.791-34.308L120.624,163.258z"/>
					
						<linearGradient id="SVGID_00000158751719771040790070000004741271118667213702_" gradientUnits="userSpaceOnUse" x1="102.2038" y1="149.6436" x2="157.8427" y2="149.6436">
						<stop  offset="0" style="stop-color:#432B99"/>
						<stop  offset="1" style="stop-color:#090051"/>
					</linearGradient>
					<path style="fill:url(#SVGID_00000158751719771040790070000004741271118667213702_);" d="M157.831,136.054
						c0,0-31.839,32.205-55.627,38.792c0,0,8.966-11.345,16.651-26.167s20.128-23.239,28.728-24.154
						C156.184,123.612,158.014,130.199,157.831,136.054z"/>
					<path style="fill:#DD2929;" d="M136.817,185.112c0,0,6.465,2.563,12.451,0.278C149.268,185.39,142.802,193.827,136.817,185.112
						z"/>
					<path style="fill:#FF6667;" d="M147.035,178.857c-0.261,0-0.473-0.211-0.473-0.473c0-0.261,0.211-0.473,0.473-0.473
						c0.779,0,1.52-0.385,1.933-1.005c0.321-0.482,0.391-1.034,0.192-1.512c-0.445-1.067-1.949-0.714-2.012-0.699
						c-0.148,0.038-0.305-0.001-0.42-0.101c-0.116-0.1-0.177-0.248-0.163-0.4l0.305-3.416c0.024-0.259,0.248-0.451,0.513-0.429
						c0.26,0.023,0.452,0.253,0.429,0.513l-0.253,2.824c0.873-0.039,2.001,0.207,2.474,1.343c0.323,0.775,0.222,1.65-0.278,2.4
						C149.168,178.311,148.126,178.857,147.035,178.857z"/>
					<path style="fill:#200A72;" d="M154.17,163.426c-0.051,1.477-0.584,2.657-1.19,2.636c-0.606-0.021-1.056-1.235-1.004-2.712
						c0.051-1.477,0.584-2.658,1.19-2.637C153.772,160.734,154.222,161.948,154.17,163.426z"/>
					<path style="fill:#200A72;" d="M138.537,163.899c-0.056,1.623-0.642,2.919-1.307,2.896c-0.666-0.023-1.16-1.357-1.103-2.98
						c0.056-1.623,0.642-2.919,1.307-2.896C138.099,160.942,138.593,162.276,138.537,163.899z"/>
					
						<linearGradient id="SVGID_00000171717019823841951710000009844846740031323053_" gradientUnits="userSpaceOnUse" x1="148.4985" y1="153.1895" x2="157.2817" y2="153.1895">
						<stop  offset="0" style="stop-color:#432B99"/>
						<stop  offset="1" style="stop-color:#090051"/>
					</linearGradient>
					<path style="fill:url(#SVGID_00000171717019823841951710000009844846740031323053_);" d="M148.498,154.291
						c0,0,4.209-3.05,8.783-0.793c0,0-3.599-3.172-8.661,0L148.498,154.291z"/>
				</g>
				<g style="clip-path:url(#SVGID_00000082326344345538000490000007988108494680511154_);">
					
						<linearGradient id="SVGID_00000102529931849673440450000006960236669356547220_" gradientUnits="userSpaceOnUse" x1="232.51" y1="273.3903" x2="242.757" y2="298.7639">
						<stop  offset="0" style="stop-color:#B8BED6"/>
						<stop  offset="1" style="stop-color:#E6EBF2"/>
					</linearGradient>
					<path style="fill:url(#SVGID_00000102529931849673440450000006960236669356547220_);" d="M239.075,300.129
						c0,0,11.711-1.464,4.148-30.741l-9.515-11.467c0,0-5.855,16.102-7.563,21.47C224.436,284.758,226.876,298.665,239.075,300.129z
						"/>
					<g>
						
							<linearGradient id="SVGID_00000107571547320540382900000004527036956386201789_" gradientUnits="userSpaceOnUse" x1="281.7712" y1="192.0134" x2="228.6079" y2="280.1616">
							<stop  offset="0" style="stop-color:#FFDADB"/>
							<stop  offset="1" style="stop-color:#FFB8B9"/>
						</linearGradient>
						<path style="fill:url(#SVGID_00000107571547320540382900000004527036956386201789_);" d="M286.549,225.936
							c-2.543,2.089-7.393,4.632-7.393,4.632s-8.556,5.077-9.246,5.55c-0.7,0.463-5.03,4.235-5.03,4.235
							c-0.009,0.019-0.028,0.057-0.047,0.095c-1.295,2.316-26.008,46.552-37.107,57.878l0.728-9.161l0.501-6.315c0,0,0,0,0-0.009
							l6.041-25.46c0,0,12.943-15.949,16.526-22.652c0,0-3.347-13.633-2.657-16.876c0.7-3.233,1.153-11.09-0.454-15.023
							c0,0,4.15-0.473,5.776,3.697c1.607,4.16,2.543,12.479,2.543,12.479s8.547-10.163,10.853-13.179
							c2.326-2.997,4.406-8.556,5.086-8.773c0.7-0.236,2.316,1.153,2.316,1.153s-2.77,7.393-3.47,9.01
							c-0.69,1.626-5.313,9.946-5.313,9.946s9.482-8.792,11.562-11.335c2.07-2.543,5.086-5.54,6.24-5.077
							c1.153,0.454,1.39,0.69-0.7,4.623c-2.08,3.923-5.313,8.32-6.467,9.936c-1.106,1.551-4.132,4.585-4.377,4.84
							c0.463-0.161,7.913-2.808,9.927-4.377c2.07-1.626,6.93-5.777,8.083-5.777c1.153,0,0.936,1.153-0.454,3.46
							c-1.39,2.316-6.476,6.476-6.476,6.476l-8.556,5.313c0,0,7.403-1.153,9.019-1.844c1.617-0.7,5.313-2.307,6.24-1.853
							C291.172,222.013,289.083,223.856,286.549,225.936z"/>
						
							<linearGradient id="SVGID_00000042719627585500869400000017982067004561740200_" gradientUnits="userSpaceOnUse" x1="265.8828" y1="236.017" x2="238.6488" y2="277.1217">
							<stop  offset="0" style="stop-color:#FF6667"/>
							<stop  offset="1" style="stop-color:#FF6667;stop-opacity:0"/>
						</linearGradient>
						<path style="opacity:0.45;fill:url(#SVGID_00000042719627585500869400000017982067004561740200_);" d="M264.88,240.325
							c0,0,0,0.009,0,0.028c-0.009,0.019-0.028,0.057-0.047,0.095c-1.295,2.316-26.008,46.552-37.107,57.878l0.728-9.161
							l1.267-5.342c0,0,0,0,0-0.009C230.41,283.086,264.88,240.325,264.88,240.325z"/>
					</g>
					<g>
						
							<linearGradient id="SVGID_00000073001106722462849300000001622612642392835217_" gradientUnits="userSpaceOnUse" x1="211.9359" y1="323.0249" x2="186.0736" y2="224.4553">
							<stop  offset="0" style="stop-color:#C5CBE5"/>
							<stop  offset="1" style="stop-color:#E3EAF5"/>
						</linearGradient>
						<path style="fill:url(#SVGID_00000073001106722462849300000001622612642392835217_);" d="M239.07,300.132
							c0,0-1.125,0.633-2.959,1.673c-7.544,4.235-27.124,15.155-29.487,15.647c-2.921,0.605-12.442,0.369-14.389,0.246
							c-1.957-0.123-31.052-40.015-31.052-40.015l-5.101-40.165l-0.444-23.03c0,0,24.155,38.45,46.845,73.515
							c0,0,22.926-23.002,31.227-30.083C233.71,257.919,223.358,296.71,239.07,300.132z"/>
						
							<linearGradient id="SVGID_00000032635209028318319940000018088546651064786595_" gradientUnits="userSpaceOnUse" x1="153.2772" y1="249.2227" x2="207.9281" y2="302.8976">
							<stop  offset="0" style="stop-color:#A1A7C4"/>
							<stop  offset="1" style="stop-color:#A1A7C4;stop-opacity:0"/>
						</linearGradient>
						<path style="fill:url(#SVGID_00000032635209028318319940000018088546651064786595_);" d="M236.111,301.805
							c-7.544,4.235-27.124,15.155-29.487,15.647c-2.921,0.605-12.442,0.369-14.389,0.246c-1.957-0.123-31.052-40.015-31.052-40.015
							l-5.101-40.165l10.929,2.184l26.897,52.13l-5.332,11.468l10.976-8.783l-2.193,16.838l6.58-17.32l17.083,2.316l5.606-5.493
							C226.629,290.857,228.501,298.477,236.111,301.805z"/>
					</g>
				</g>
				<g style="clip-path:url(#SVGID_00000082326344345538000490000007988108494680511154_);">
					<g>
						
							<linearGradient id="SVGID_00000054258443345585784240000013154962300059775644_" gradientUnits="userSpaceOnUse" x1="178.1377" y1="419.3736" x2="154.3498" y2="198.6949">
							<stop  offset="0" style="stop-color:#C5CBE5"/>
							<stop  offset="1" style="stop-color:#E3EAF5"/>
						</linearGradient>
						<path style="fill:url(#SVGID_00000054258443345585784240000013154962300059775644_);" d="M166.245,442.738
							c0,0,2.383-22.142,1.106-40.265c-1.012-14.417-4.935-62.671-6.495-81.769c-0.397-4.907-0.643-7.885-0.643-7.885l0.728-17.017
							l-2.052-18.889l-5.389-49.549l-3.11-17.386c0,0,4.33,0.917,9.823,12.082c5.483,11.156,17.197,49.341,16.649,52.451
							c-0.331,1.872-3.177,17.017-5.398,28.788l-0.615,3.252l-0.284,1.522l-0.151,0.804l-0.425,2.25l-0.87,4.623l-0.123,0.652
							l-0.189,0.983c0,0,4.945,31.293,4.945,36.238c0,4.935,9.88,87.28,9.88,87.28L166.245,442.738z"/>
						
							<linearGradient id="SVGID_00000021832587275889832870000006376014740465218221_" gradientUnits="userSpaceOnUse" x1="163.5562" y1="268.8487" x2="169.394" y2="311.6904">
							<stop  offset="0" style="stop-color:#A1A7C4"/>
							<stop  offset="1" style="stop-color:#A1A7C4;stop-opacity:0"/>
						</linearGradient>
						<path style="fill:url(#SVGID_00000021832587275889832870000006376014740465218221_);" d="M173.752,272.006l-2.288,31.293
							l-0.615,3.252l-0.284,1.522l-0.151,0.804l-0.425,2.25l-0.87,4.623l-0.123,0.652l-0.189,0.983l-7.951,3.318
							c-0.397-4.907-0.643-7.885-0.643-7.885l0.728-17.017l-2.052-18.889L173.752,272.006z"/>
						
							<linearGradient id="SVGID_00000103949791055187183100000012890200027120590243_" gradientUnits="userSpaceOnUse" x1="153.6636" y1="207.849" x2="161.1659" y2="296.2296">
							<stop  offset="0" style="stop-color:#C5CBE5"/>
							<stop  offset="1" style="stop-color:#E3EAF5"/>
						</linearGradient>
						<path style="fill:url(#SVGID_00000103949791055187183100000012890200027120590243_);" d="M145.51,208.271l4.88,1.708
							l12.605,24.154l-6.11,2.562c0,0,10.279,34.767,10.462,35.865c0.183,1.098-7.136,40.256-7.136,40.256
							s-1.647-40.073-1.83-45.929C158.197,261.031,145.51,208.271,145.51,208.271z"/>
					</g>
					<g>
						
							<linearGradient id="SVGID_00000148637150728879251940000005746176838378473902_" gradientUnits="userSpaceOnUse" x1="84.8938" y1="449.5952" x2="104.2607" y2="207.2471">
							<stop  offset="0" style="stop-color:#C5CBE5"/>
							<stop  offset="1" style="stop-color:#E3EAF5"/>
						</linearGradient>
						<path style="fill:url(#SVGID_00000148637150728879251940000005746176838378473902_);" d="M121.055,325.072l-2.997,118.271
							l-65.621,3.659c0,0,2.95-13.444,6.968-31.624c7.648-34.612,20.891-93.93,23.293-102.562c0,0-6.172-26.61-9.414-49.016
							c-1.191-8.178-2.212-14.786-2.799-17.594c-2.193-10.485,26.774-39.518,26.774-39.518l23.248,31.473L121.055,325.072z"/>
						
							<linearGradient id="SVGID_00000111172253701534684450000013629110235230606732_" gradientUnits="userSpaceOnUse" x1="74.5063" y1="233.8008" x2="94.8604" y2="383.1749">
							<stop  offset="0" style="stop-color:#A1A7C4"/>
							<stop  offset="1" style="stop-color:#A1A7C4;stop-opacity:0"/>
						</linearGradient>
						<path style="fill:url(#SVGID_00000111172253701534684450000013629110235230606732_);" d="M88.297,312.816l32.733,8.293
							l-0.253-40.148l-18.573,7.04l-12.252,2.05c7.666-12.493,10.654-34.126,10.654-34.126l-6.211-8.981L73.283,263.8
							c3.243,22.406,9.414,49.016,9.414,49.016c-2.401,8.632-15.645,67.95-23.293,102.562l32.116-90.306
							C91.52,325.072,88.271,313.395,88.297,312.816z"/>
						
							<linearGradient id="SVGID_00000145752527154368697250000008933353510697986473_" gradientUnits="userSpaceOnUse" x1="107.0804" y1="193.5672" x2="122.2069" y2="304.5767">
							<stop  offset="0" style="stop-color:#C5CBE5"/>
							<stop  offset="1" style="stop-color:#E3EAF5"/>
						</linearGradient>
						<path style="fill:url(#SVGID_00000145752527154368697250000008933353510697986473_);" d="M107.145,205.771l-9.881,0.915
							l7.502,29.277l10.064,1.647l-8.417,37.329l14.639,50.137c0,0,4.941-61.482,4.941-73.01c0-11.528-1.83-16.285-1.83-16.285
							S117.757,218.214,107.145,205.771z"/>
					</g>
				</g>
			</g>
			<g>
				<g>
					
						<linearGradient id="SVGID_00000077289851076049793540000010845466343239077258_" gradientUnits="userSpaceOnUse" x1="103.3307" y1="314.2296" x2="109.4258" y2="418.1847">
						<stop  offset="0" style="stop-color:#432B99"/>
						<stop  offset="1" style="stop-color:#090051"/>
					</linearGradient>
					<polygon style="fill:url(#SVGID_00000077289851076049793540000010845466343239077258_);" points="153.012,337.677 
						133.748,383.716 131.005,390.276 119.118,418.685 74.142,399.869 59.691,393.824 82.145,340.173 93.585,312.816 					"/>
					
						<linearGradient id="SVGID_00000109025143043528845310000004313038846113308071_" gradientUnits="userSpaceOnUse" x1="87.1021" y1="406.472" x2="105.9493" y2="379.5735">
						<stop  offset="0" style="stop-color:#090051;stop-opacity:0"/>
						<stop  offset="1" style="stop-color:#090051"/>
					</linearGradient>
					<path style="fill:url(#SVGID_00000109025143043528845310000004313038846113308071_);" d="M129.488,394.352l-2.316,5.54
						c-8.915,1.484-31.114,5.238-48.027,8.102l-12.205-5.105l18.965-45.314l40.085,26.235L129.488,394.352z"/>
					
						<rect x="94.807" y="332.569" transform="matrix(0.9225 0.386 -0.386 0.9225 139.516 -19.3949)" style="fill:#FFFFFF;" width="46.508" height="10.399"/>
				</g>
				<g>
					
						<linearGradient id="SVGID_00000111168814752188512900000003661627720425104010_" gradientUnits="userSpaceOnUse" x1="100.3257" y1="380.1573" x2="101.7895" y2="397.7237">
						<stop  offset="0" style="stop-color:#B8BED6"/>
						<stop  offset="1" style="stop-color:#E6EBF2"/>
					</linearGradient>
					<path style="fill:url(#SVGID_00000111168814752188512900000003661627720425104010_);" d="M98.3,399.915
						c0,0,3.355,2.928,5.367-4.575c2.013-7.502,5.368-26.228,1.22-33.242c0,0-9.088,3.233-10.735,10.003
						C92.506,378.872,92.75,393.877,98.3,399.915z"/>
					
						<linearGradient id="SVGID_00000062911518777517332870000003211804472894295689_" gradientUnits="userSpaceOnUse" x1="144.4857" y1="385.9732" x2="90.8785" y2="369.3238">
						<stop  offset="0" style="stop-color:#FFDADB"/>
						<stop  offset="1" style="stop-color:#FFB8B9"/>
					</linearGradient>
					<path style="fill:url(#SVGID_00000062911518777517332870000003211804472894295689_);" d="M132.088,375.576
						c2.562,1.097,5.493,4.207,5.493,4.207s0.369,3.299-0.18,4.216c-0.548,0.908-1.834,1.456-1.834,1.456s0.917,0.917,0.737,2.203
						c-0.189,1.276-1.654,3.29-1.654,3.29s-1.276,3.659-2.193,4.396c-0.917,0.728-1.825,0.728-1.825,0.728s-1.465,2.382-3.12,3.11
						c-1.645,0.737-13.718-5.304-13.718-5.304s0,0-0.009-0.009c0-0.009-0.009-0.019-0.019-0.038
						c-0.633-0.832-9.312-12.413-9.492-12.943c-0.18-0.548-17.377-11.165-17.377-11.165l17.991-7.62c0,0,4.33,3.592,6.713,4.141
						c2.373,0.548,11.345-0.18,14.087,0c2.742,0.189,14.087,1.645,17.745,0.548c0,0-3.47,4.576-6.032,5.124
						c-2.562,0.548-6.589,0.917-7.138,1.097C129.715,373.203,129.526,374.479,132.088,375.576z"/>
					
						<linearGradient id="SVGID_00000042719799176458414050000006225769073958785192_" gradientUnits="userSpaceOnUse" x1="111.4963" y1="364.9262" x2="102.9764" y2="377.7854">
						<stop  offset="0" style="stop-color:#FF6667"/>
						<stop  offset="1" style="stop-color:#FF6667;stop-opacity:0"/>
					</linearGradient>
					<path style="fill:url(#SVGID_00000042719799176458414050000006225769073958785192_);" d="M113.766,393.832
						c-0.633-0.832-9.312-12.413-9.492-12.943c-0.18-0.548-17.377-11.165-17.377-11.165l17.991-7.62c0,0-0.492,13.018-0.397,14.115
						C104.586,377.277,113.227,392.858,113.766,393.832z"/>
					
						<linearGradient id="SVGID_00000145033120672103704040000000783368009567266999_" gradientUnits="userSpaceOnUse" x1="67.4285" y1="371.2452" x2="75.4798" y2="199.2414">
						<stop  offset="0" style="stop-color:#C5CBE5"/>
						<stop  offset="1" style="stop-color:#E3EAF5"/>
					</linearGradient>
					<path style="fill:url(#SVGID_00000145033120672103704040000000783368009567266999_);" d="M97.263,206.686
						c0,0-8.966,2.196-28.24,30.741c-19.274,28.545-35.377,64.41-35.377,64.41s0.488,18.054,1.464,23.91
						c0.976,5.855,53.431,70.265,63.19,74.169c0,0-4.88-23.178,6.587-37.816c0,0-21.226-20.738-27.325-27.813
						c-6.099-7.075-12.931-21.226-12.931-21.226s27.813-40.5,31.717-46.844C96.348,266.216,113.793,234.499,97.263,206.686z"/>
				</g>
			</g>
		</g>
	</g>
	<g>
		<g>
			
				<linearGradient id="SVGID_00000158019764953539993910000004077580251639023762_" gradientUnits="userSpaceOnUse" x1="222.4398" y1="362.3114" x2="205.6054" y2="417.2061">
				<stop  offset="0" style="stop-color:#DBF0FF"/>
				<stop  offset="1" style="stop-color:#DBF0FF;stop-opacity:0"/>
			</linearGradient>
			<polygon style="fill:url(#SVGID_00000158019764953539993910000004077580251639023762_);" points="245.174,383.691 
				188.425,385.765 188.425,377.714 245.174,376.006 			"/>
			
				<linearGradient id="SVGID_00000015342133922588157850000004187153362440251297_" gradientUnits="userSpaceOnUse" x1="220.0007" y1="361.5635" x2="203.1665" y2="416.458">
				<stop  offset="0" style="stop-color:#DBF0FF"/>
				<stop  offset="1" style="stop-color:#DBF0FF;stop-opacity:0"/>
			</linearGradient>
			<polygon style="fill:url(#SVGID_00000015342133922588157850000004187153362440251297_);" points="245.174,396.512 
				174.909,400.891 174.909,391.565 245.174,388.827 			"/>
		</g>
		<g>
			
				<linearGradient id="SVGID_00000130649063570131669910000013009004636351920278_" gradientUnits="userSpaceOnUse" x1="225.6837" y1="328.3261" x2="208.2603" y2="362.3718">
				<stop  offset="0" style="stop-color:#DBF0FF"/>
				<stop  offset="1" style="stop-color:#DBF0FF;stop-opacity:0"/>
			</linearGradient>
			<polygon style="fill:url(#SVGID_00000130649063570131669910000013009004636351920278_);" points="199.429,338.744 
				199.429,330.876 245.174,331.125 245.174,338.993 			"/>
			
				<linearGradient id="SVGID_00000008148527757772658190000005961509305552614545_" gradientUnits="userSpaceOnUse" x1="245.9481" y1="325.6219" x2="228.457" y2="359.7999">
				<stop  offset="0" style="stop-color:#DBF0FF"/>
				<stop  offset="1" style="stop-color:#DBF0FF;stop-opacity:0"/>
			</linearGradient>
			<polygon style="fill:url(#SVGID_00000008148527757772658190000005961509305552614545_);" points="245.174,344.16 
				223.542,344.509 223.542,352.377 245.174,352.028 			"/>
		</g>
	</g>
	<g>
		<g>
			
				<linearGradient id="SVGID_00000033346942137516644000000013472157403902793624_" gradientUnits="userSpaceOnUse" x1="257.1061" y1="162.6912" x2="285.1488" y2="38.1823">
				<stop  offset="0" style="stop-color:#F9F9F9"/>
				<stop  offset="1" style="stop-color:#B7D0EE"/>
			</linearGradient>
			<path style="fill:url(#SVGID_00000033346942137516644000000013472157403902793624_);" d="M326.134,80.97v50.336
				c0,3.477-2.825,6.303-6.303,6.303h-91.718l-31.123,16.192l17.67-24.94V80.97c0-3.478,2.815-6.292,6.292-6.292h98.879
				C323.309,74.678,326.134,77.493,326.134,80.97z"/>
			
				<linearGradient id="SVGID_00000104665231295475241880000010386159659648562310_" gradientUnits="userSpaceOnUse" x1="230.6165" y1="120.8589" x2="259.2214" y2="86.3647">
				<stop  offset="0" style="stop-color:#FFFFFF;stop-opacity:0"/>
				<stop  offset="1" style="stop-color:#FFFFFF"/>
			</linearGradient>
			<path style="opacity:0.91;fill:url(#SVGID_00000104665231295475241880000010386159659648562310_);" d="M319.831,74.678
				c0,0-96.967,2.565-100.335,4.249c-3.369,1.684-4.836,49.934-4.836,49.934V80.97c0-3.478,2.815-6.292,6.292-6.292H319.831z"/>
		</g>
		<g>
			
				<linearGradient id="SVGID_00000151506174698473159690000002506046642378621058_" gradientUnits="userSpaceOnUse" x1="241.7903" y1="101.0236" x2="241.7903" y2="128.369">
				<stop  offset="0" style="stop-color:#CB2371"/>
				<stop  offset="1" style="stop-color:#57236B"/>
			</linearGradient>
			<path style="fill:url(#SVGID_00000151506174698473159690000002506046642378621058_);" d="M241.79,97.93
				c-8.462-9.556-15.873-1.885-14.612,5.708c1.262,7.593,14.612,16.814,14.612,16.814s13.351-9.22,14.612-16.814
				C257.664,96.044,250.253,88.373,241.79,97.93z"/>
			<g>
				<path style="fill:#FFFFFF;" d="M241.264,111.33L241.264,111.33c-0.207,0-0.4-0.105-0.513-0.279l-3.102-4.785l-1.022,1.577
					c-0.113,0.174-0.306,0.279-0.513,0.279h-11.696c-0.338,0-0.611-0.273-0.611-0.611c0-0.338,0.273-0.611,0.611-0.611h11.364
					l1.354-2.089c0.113-0.174,0.306-0.279,0.513-0.279l0,0c0.207,0,0.4,0.105,0.513,0.279l3.101,4.785l3.988-6.153
					c0.225-0.348,0.8-0.348,1.025,0l2.098,3.237h9.629c0.337,0,0.611,0.273,0.611,0.611c0,0.338-0.274,0.611-0.611,0.611h-9.961
					c-0.207,0-0.4-0.105-0.513-0.279l-1.766-2.725l-3.988,6.153C241.665,111.225,241.471,111.33,241.264,111.33z"/>
			</g>
		</g>
		<g>
			
				<linearGradient id="SVGID_00000106110397380618164620000013308458009743343011_" gradientUnits="userSpaceOnUse" x1="289.2572" y1="90.5493" x2="293.4638" y2="119.715">
				<stop  offset="0" style="stop-color:#7BC6FF"/>
				<stop  offset="1" style="stop-color:#7691FF"/>
			</linearGradient>
			
				<rect x="270.043" y="94.841" style="fill:url(#SVGID_00000106110397380618164620000013308458009743343011_);" width="40.677" height="7.011"/>
			
				<linearGradient id="SVGID_00000034781503980881160270000015549575752171515838_" gradientUnits="userSpaceOnUse" x1="282.1541" y1="91.5739" x2="286.3607" y2="120.7397">
				<stop  offset="0" style="stop-color:#7BC6FF"/>
				<stop  offset="1" style="stop-color:#7691FF"/>
			</linearGradient>
			
				<rect x="270.043" y="103.751" style="fill:url(#SVGID_00000034781503980881160270000015549575752171515838_);" width="28.745" height="7.011"/>
			
				<linearGradient id="SVGID_00000160906812095667286740000005084981544476770984_" gradientUnits="userSpaceOnUse" x1="285.0849" y1="91.151" x2="289.2915" y2="120.317">
				<stop  offset="0" style="stop-color:#7BC6FF"/>
				<stop  offset="1" style="stop-color:#7691FF"/>
			</linearGradient>
			
				<rect x="270.043" y="112.66" style="fill:url(#SVGID_00000160906812095667286740000005084981544476770984_);" width="37.299" height="7.011"/>
		</g>
	</g>
	<g>
		
			<linearGradient id="SVGID_00000171684887142294726030000014898865842153449351_" gradientUnits="userSpaceOnUse" x1="33.0504" y1="83.465" x2="68.395" y2="45.8547">
			<stop  offset="0.3106" style="stop-color:#DBF0FF"/>
			<stop  offset="1" style="stop-color:#DBF0FF;stop-opacity:0"/>
		</linearGradient>
		
			<ellipse style="fill:url(#SVGID_00000171684887142294726030000014898865842153449351_);" cx="52.241" cy="63.045" rx="11.145" ry="12.971"/>
		
			<linearGradient id="SVGID_00000012455303607529943420000011392336196843989951_" gradientUnits="userSpaceOnUse" x1="53.8652" y1="98.1342" x2="148.9529" y2="26.9513">
			<stop  offset="0" style="stop-color:#DBF0FF"/>
			<stop  offset="1" style="stop-color:#DBF0FF;stop-opacity:0"/>
		</linearGradient>
		<polygon style="fill:url(#SVGID_00000012455303607529943420000011392336196843989951_);" points="121.643,61.134 121.643,68.624 
			78.868,66.514 78.868,58.189 		"/>
		
			<linearGradient id="SVGID_00000063611223388152585270000012690038568222820749_" gradientUnits="userSpaceOnUse" x1="46.1897" y1="127.5977" x2="145.0859" y2="53.5638">
			<stop  offset="0" style="stop-color:#DBF0FF"/>
			<stop  offset="1" style="stop-color:#DBF0FF;stop-opacity:0"/>
		</linearGradient>
		<polygon style="fill:url(#SVGID_00000063611223388152585270000012690038568222820749_);" points="121.643,83.6 121.643,91.089 
			78.868,91.483 78.868,83.159 		"/>
		
			<linearGradient id="SVGID_00000016052525270692319600000017169465181832894394_" gradientUnits="userSpaceOnUse" x1="-13.2941" y1="134.8083" x2="108.9064" y2="43.3288">
			<stop  offset="0" style="stop-color:#F9F9F9"/>
			<stop  offset="1" style="stop-color:#B7D0EE"/>
		</linearGradient>
		<path style="fill:url(#SVGID_00000016052525270692319600000017169465181832894394_);" d="M49.056,97.11
			c-0.603,0.013-1.205-0.21-1.667-0.671l-7.493-7.481c-0.957-0.954-0.957-2.507,0-3.461c0.953-0.95,2.488-0.94,3.43,0.015
			l5.729,5.805l12.486-12.86c0.866-0.892,2.262-0.86,3.12,0.064c0.854,0.92,0.854,2.384,0,3.277L50.71,96.375
			C50.255,96.851,49.657,97.098,49.056,97.11z"/>
		
			<linearGradient id="SVGID_00000144336838167910314670000010856487248735856060_" gradientUnits="userSpaceOnUse" x1="78.5453" y1="32.7963" x2="39.5493" y2="69.4048">
			<stop  offset="0.2777" style="stop-color:#7BC6FF"/>
			<stop  offset="0.9129" style="stop-color:#7691FF"/>
		</linearGradient>
		<path style="fill:url(#SVGID_00000144336838167910314670000010856487248735856060_);" d="M49.056,70.396
			c-0.603-0.023-1.205-0.28-1.667-0.768l-7.493-7.919c-0.957-1.01-0.957-2.563,0-3.461c0.953-0.894,2.488-0.794,3.43,0.216
			l5.729,6.14l12.486-12.129c0.866-0.841,2.262-0.728,3.12,0.247c0.854,0.97,0.854,2.434,0,3.277L50.71,69.758
			C50.255,70.207,49.657,70.418,49.056,70.396z"/>
		
			<linearGradient id="SVGID_00000035496496790828358210000015203839809258224015_" gradientUnits="userSpaceOnUse" x1="26.6441" y1="166.3889" x2="129.4194" y2="89.4511">
			<stop  offset="0" style="stop-color:#DBF0FF"/>
			<stop  offset="1" style="stop-color:#DBF0FF;stop-opacity:0"/>
		</linearGradient>
		<polygon style="fill:url(#SVGID_00000035496496790828358210000015203839809258224015_);" points="121.643,106.484 
			121.643,113.973 78.868,116.918 78.868,108.594 		"/>
		
			<linearGradient id="SVGID_00000047043935859671146310000009416565514110769028_" gradientUnits="userSpaceOnUse" x1="-2.3415" y1="154.0463" x2="124.07" y2="59.4144">
			<stop  offset="0" style="stop-color:#F9F9F9"/>
			<stop  offset="1" style="stop-color:#B7D0EE"/>
		</linearGradient>
		<path style="fill:url(#SVGID_00000047043935859671146310000009416565514110769028_);" d="M49.056,124.322
			c-0.603,0.049-1.205-0.138-1.667-0.571l-7.493-7.033c-0.957-0.897-0.957-2.45,0-3.461c0.953-1.007,2.488-1.088,3.43-0.189
			l5.729,5.462l12.486-13.604c0.866-0.944,2.262-0.995,3.12-0.122c0.854,0.87,0.854,2.333,0,3.277L50.71,123.488
			C50.255,123.992,49.657,124.273,49.056,124.322z"/>
	</g>
	<g>
		
			<linearGradient id="SVGID_00000178913112882277701290000018206234797690478475_" gradientUnits="userSpaceOnUse" x1="177.6148" y1="245.1269" x2="266.6408" y2="158.4234">
			<stop  offset="0" style="stop-color:#DBF0FF"/>
			<stop  offset="1" style="stop-color:#DBF0FF;stop-opacity:0"/>
		</linearGradient>
		<path style="fill:url(#SVGID_00000178913112882277701290000018206234797690478475_);" d="M237.418,175.602
			c0,0-9.753-3.24-17.094-4.128c-7.7-0.932-19.183-0.01-19.183-0.01c0,7.136-5.26,12.736-12.466,13.004v33.887
			c0,9.485,7.743,28.059,31.649,29.09c20.746-5.916,26.338-22.689,26.338-30.583v-28.2
			C241.474,187.604,237.418,181.962,237.418,175.602z"/>
		
			<linearGradient id="SVGID_00000053535551262017078200000001047984223239654279_" gradientUnits="userSpaceOnUse" x1="239.2897" y1="187.8121" x2="196.8166" y2="230.2853">
			<stop  offset="0" style="stop-color:#7BC6FF"/>
			<stop  offset="0.7797" style="stop-color:#7691FF"/>
		</linearGradient>
		<path style="fill:url(#SVGID_00000053535551262017078200000001047984223239654279_);" d="M234.885,209.46
			c0,9.895-7.073,18.342-16.275,18.895c-9.775,0.588-18.158-7.856-18.158-18.895c0-11.039,8.383-19.484,18.158-18.895
			C227.812,191.118,234.885,199.565,234.885,209.46z"/>
		
			<linearGradient id="SVGID_00000009559963581868169570000015289394786072545182_" gradientUnits="userSpaceOnUse" x1="247.5134" y1="178.3595" x2="198.6351" y2="227.2377">
			<stop  offset="0.0259" style="stop-color:#CB2371;stop-opacity:0"/>
			<stop  offset="0.2402" style="stop-color:#AB236F;stop-opacity:0.22"/>
			<stop  offset="0.5825" style="stop-color:#7E236D;stop-opacity:0.5714"/>
			<stop  offset="0.8471" style="stop-color:#61236C;stop-opacity:0.8431"/>
			<stop  offset="1" style="stop-color:#57236B"/>
		</linearGradient>
		<path style="fill:url(#SVGID_00000009559963581868169570000015289394786072545182_);" d="M219.276,220.022
			c-0.769,0.094-1.541-0.141-2.135-0.731l-9.969-9.888c-1.318-1.306-1.318-3.567,0-5.018c1.302-1.434,3.378-1.509,4.64-0.199
			l7.464,7.749l15.127-18.201c0.996-1.198,2.587-1.176,3.555,0.026c0.959,1.19,0.959,3.106,0,4.304l-16.591,20.732
			C220.794,219.512,220.039,219.929,219.276,220.022z"/>
	</g>
	<g>
		<defs>
			<rect id="SVGID_00000041985264800244015100000005596452460102421634_" width="500" height="500"/>
		</defs>
		<clipPath id="SVGID_00000082365426400607161330000002899265853798084761_">
			<use xlink:href="#SVGID_00000041985264800244015100000005596452460102421634_"  style="overflow:visible;"/>
		</clipPath>
		<g style="clip-path:url(#SVGID_00000082365426400607161330000002899265853798084761_);">
			<g>
				
					<linearGradient id="SVGID_00000047024207980437237470000006097636090043095707_" gradientUnits="userSpaceOnUse" x1="326.1365" y1="503.9962" x2="397.928" y2="384.3439">
					<stop  offset="0" style="stop-color:#265CFF"/>
					<stop  offset="1" style="stop-color:#000B79"/>
				</linearGradient>
				<path style="fill:url(#SVGID_00000047024207980437237470000006097636090043095707_);" d="M418.037,359.15v141.191h-9.564
					l-43.017,1.464l-8.53-80.806c-3.971,20.459-7.336,81.014-7.336,81.014l-11.052-0.416l-41.37,0.416l14.662-116.477l1.541-9.775
					l12.309-2.902l29.1-6.873v-1.796l49.35-23.569l13.292,17.717L418.037,359.15z"/>
				
					<linearGradient id="SVGID_00000125585462983089095360000012325774068889660809_" gradientUnits="userSpaceOnUse" x1="344.0383" y1="368.9721" x2="321.5925" y2="388.0022">
					<stop  offset="0" style="stop-color:#000B79;stop-opacity:0"/>
					<stop  offset="1" style="stop-color:#000B79"/>
				</linearGradient>
				<path style="fill:url(#SVGID_00000125585462983089095360000012325774068889660809_);" d="M354.231,379.543
					c-7.629,3.98-34.451,5.597-42.402,5.994l1.541-9.775l12.309-2.902L354.231,379.543z"/>
				
					<linearGradient id="SVGID_00000116938381490616647380000012770279822531630268_" gradientUnits="userSpaceOnUse" x1="413.3015" y1="487.0325" x2="413.0097" y2="372.062">
					<stop  offset="0" style="stop-color:#000B79;stop-opacity:0"/>
					<stop  offset="1" style="stop-color:#000B79"/>
				</linearGradient>
				<path style="fill:url(#SVGID_00000116938381490616647380000012770279822531630268_);" d="M418.037,359.15v141.191h-9.564
					c1.626-15.817,5.291-72.488,5.291-72.488l-5.814-56.119c0,0,4.595,0.737,8.008-2.193l-1.948-1.948l3.413-9.255L418.037,359.15z"
					/>
				
					<linearGradient id="SVGID_00000093860961262790190550000016239941983682356412_" gradientUnits="userSpaceOnUse" x1="343.6648" y1="494.4502" x2="356.4168" y2="410.4737">
					<stop  offset="0" style="stop-color:#000B79;stop-opacity:0"/>
					<stop  offset="1" style="stop-color:#000B79"/>
				</linearGradient>
				<path style="fill:url(#SVGID_00000093860961262790190550000016239941983682356412_);" d="M356.925,420.999
					c-3.971,20.459-6.85,82.282-6.85,82.282l-12.36-0.674l12.129-84.511l1.702-26.594L356.925,420.999z"/>
			</g>
			<g>
				
					<linearGradient id="SVGID_00000149368217591347907950000011284851769451374269_" gradientUnits="userSpaceOnUse" x1="391.862" y1="189.1104" x2="353.4371" y2="372.4515">
					<stop  offset="0" style="stop-color:#EB8831"/>
					<stop  offset="1" style="stop-color:#EB5E31"/>
				</linearGradient>
				<path style="fill:url(#SVGID_00000149368217591347907950000011284851769451374269_);" d="M423.114,236.518l-2.761,56.167
					l1.702,59.533c0,0-7.072-2.439-14.143-2.439c-0.482,0-0.983,0.028-1.513,0.085c-7.109,0.719-17.282,6.013-17.282,6.013
					s-29.761,23.427-34.886,23.664c-5.124,0.246-48.311,1.22-48.311,1.22l11.326-53.368l7.705-36.332v-89.861L339,196.112
					l17.556-6.363l2.071-0.747l3.394,0.066l1.22,0.028l28.986,0.577l32.759,8.594L423.114,236.518z"/>
				
					<linearGradient id="SVGID_00000157268434607769771260000014167464903000057258_" gradientUnits="userSpaceOnUse" x1="355.1998" y1="214.8107" x2="321.287" y2="328.26">
					<stop  offset="0" style="stop-color:#EB5E31"/>
					<stop  offset="1" style="stop-color:#EB5E31;stop-opacity:0"/>
				</linearGradient>
				<path style="fill:url(#SVGID_00000157268434607769771260000014167464903000057258_);" d="M368.904,241.009l-7.176,0.889
					l-18.719,24.694l-25.762,60.799l7.705-36.332v-43.81l14.89-24.808h2.449l-3.29-26.33l-0.255-2.033
					c-0.142-1.144,0.671-2.193,1.815-2.335l15.996-1.995l5.465-0.681l0.397-0.047c0.284-0.038,0.567-0.01,0.823,0.076
					c0.785,0.208,1.409,0.879,1.513,1.74l5.966,47.838C370.861,239.818,370.048,240.858,368.904,241.009z"/>
				
					<linearGradient id="SVGID_00000140696356595049052860000016153816134004384406_" gradientUnits="userSpaceOnUse" x1="413.0189" y1="240.2854" x2="415.7027" y2="322.0177">
					<stop  offset="0" style="stop-color:#EB5E31"/>
					<stop  offset="1" style="stop-color:#EB5E31;stop-opacity:0"/>
				</linearGradient>
				<path style="fill:url(#SVGID_00000140696356595049052860000016153816134004384406_);" d="M420.353,292.685l1.702,59.533
					c0,0-7.072-2.439-14.143-2.439c-0.482,0-0.983,0.028-1.513,0.085l1.551-23.512l5.048-7.781l-4.774,0.917
					c0,0-2.269-34.838-3.091-36.304c-0.832-1.465,3.091-48.121,3.091-48.121l14.89,1.456L420.353,292.685z"/>
			</g>
			<g>
				
					<linearGradient id="SVGID_00000007406396323039106250000014748929587910544515_" gradientUnits="userSpaceOnUse" x1="420.7881" y1="359.9384" x2="457.384" y2="281.9892">
					<stop  offset="0" style="stop-color:#FFDADB"/>
					<stop  offset="1" style="stop-color:#FFB8B9"/>
				</linearGradient>
				<path style="fill:url(#SVGID_00000007406396323039106250000014748929587910544515_);" d="M469.448,304.768
					c0,0.7-0.047,1.399-0.151,2.099c-0.813,5.994-4.784,11.44-4.784,11.44s-33.184,36.843-50.504,49.284
					c0,0-4.339-1.503-9.133-8.131c-1.56-2.146-3.158-4.84-4.68-8.197c0,0,15.051-17.367,21.139-24.184
					c6.089-6.826,16.97-20.969,16.97-20.969l-7.705-14.332c0,0,11.269-21.045,30.641-15.798
					C461.242,275.98,469.448,303.52,469.448,304.768z"/>
				
					<linearGradient id="SVGID_00000089560007044952474280000006639039583982490784_" gradientUnits="userSpaceOnUse" x1="454.6709" y1="297.7134" x2="423.8605" y2="361.916">
					<stop  offset="0" style="stop-color:#FF6667"/>
					<stop  offset="1" style="stop-color:#FF6667;stop-opacity:0"/>
				</linearGradient>
				<path style="opacity:0.5;fill:url(#SVGID_00000089560007044952474280000006639039583982490784_);" d="M469.297,306.866
					c-0.813,5.994-4.784,11.44-4.784,11.44s-33.184,36.843-50.504,49.284c0,0-4.339-1.503-9.133-8.131l10.04,1.863l46.325-43.735
					c0,0,2.354-6.221,4.727-8.603C466.754,308.2,467.983,307.481,469.297,306.866z"/>
				
					<linearGradient id="SVGID_00000070824951994018968990000013082546037319437485_" gradientUnits="userSpaceOnUse" x1="445.2661" y1="282.0588" x2="413.4272" y2="207.4018">
					<stop  offset="0" style="stop-color:#EB8831"/>
					<stop  offset="1" style="stop-color:#EB5E31"/>
				</linearGradient>
				<path style="fill:url(#SVGID_00000070824951994018968990000013082546037319437485_);" d="M424.986,198.269
					c0,0,11.223,11.96,15.858,19.765c4.635,7.805,20.396,57.943,20.396,57.943s-21.226,3.904-30.643,15.798l-19.884-36.62
					c0,0-4.246-25.445-2.219-32.366C410.547,215.778,424.986,198.269,424.986,198.269z"/>
			</g>
			<g>
				
					<linearGradient id="SVGID_00000134929531098769705220000012938302137445386632_" gradientUnits="userSpaceOnUse" x1="357.75" y1="102.8822" x2="339.692" y2="133.7451">
					<stop  offset="0" style="stop-color:#432B99"/>
					<stop  offset="1" style="stop-color:#090051"/>
				</linearGradient>
				<path style="fill:url(#SVGID_00000134929531098769705220000012938302137445386632_);" d="M342.537,108.938
					c0,0-1.167,24.413,3.5,33.907l8.648-29.94L342.537,108.938z"/>
				
					<linearGradient id="SVGID_00000053533908599966418810000005330120594044147880_" gradientUnits="userSpaceOnUse" x1="404.5757" y1="104.2887" x2="397.9255" y2="172.5406">
					<stop  offset="0" style="stop-color:#432B99"/>
					<stop  offset="1" style="stop-color:#090051"/>
				</linearGradient>
				<path style="fill:url(#SVGID_00000053533908599966418810000005330120594044147880_);" d="M403.789,111.505
					c0,0,5.25,0.583,9.8,6.884s0.583,27.067-4.9,38.034c-5.484,10.967-23.334,19.134-23.334,19.134v-12.309l5.367-26.106
					L403.789,111.505z"/>
				
					<linearGradient id="SVGID_00000077299065137279673310000006671817410688645767_" gradientUnits="userSpaceOnUse" x1="362.8138" y1="210.2117" x2="382.0614" y2="165.5846">
					<stop  offset="0" style="stop-color:#FFDADB"/>
					<stop  offset="1" style="stop-color:#FFB8B9"/>
				</linearGradient>
				<path style="fill:url(#SVGID_00000077299065137279673310000006671817410688645767_);" d="M392.227,189.673
					c0,0-7.128,17.925-12.167,20.307c-2.647,1.257-7.819,1.796-12.744,1.399c-4.406-0.359-8.622-1.475-10.645-3.507
					c-2.827-2.855-1.9-10.097-0.955-14.645c0.322-1.588,0.652-2.846,0.823-3.479c0.085-0.284,0.132-0.444,0.132-0.444l2.439-18.237
					l21.669-5.881l5.049-1.371c-0.019,1.749,0.057,3.441,0.208,5.067c0.009,0.104,0.019,0.208,0.028,0.312
					C387.216,181.354,392.227,189.673,392.227,189.673z"/>
				
					<linearGradient id="SVGID_00000048496127399309013260000013001325215354236302_" gradientUnits="userSpaceOnUse" x1="385.5227" y1="162.5802" x2="357.1604" y2="198.9938">
					<stop  offset="0" style="stop-color:#FF6667"/>
					<stop  offset="1" style="stop-color:#FF6667;stop-opacity:0"/>
				</linearGradient>
				<path style="fill:url(#SVGID_00000048496127399309013260000013001325215354236302_);" d="M386.035,168.884l-5.257-3.697
					l-21.669,5.881l-2.439,18.237c0,0-0.049,0.167-0.125,0.443l-0.007,0.001c-0.17,0.633-0.501,1.891-0.823,3.479
					c-0.945,4.548-1.872,11.789,0.955,14.645c2.023,2.033,6.24,3.148,10.645,3.507l-2.52-20.205
					c8.896-4.422,19.916-20.032,21.267-21.979c0.095-0.132,0.142-0.199,0.142-0.199L386.035,168.884z"/>
				
					<linearGradient id="SVGID_00000182496859013427207170000005335612642171317665_" gradientUnits="userSpaceOnUse" x1="408.4745" y1="133.0464" x2="395.6408" y2="154.9804">
					<stop  offset="0" style="stop-color:#FFDADB"/>
					<stop  offset="1" style="stop-color:#FFB8B9"/>
				</linearGradient>
				<path style="fill:url(#SVGID_00000182496859013427207170000005335612642171317665_);" d="M396.88,141.951
					c0,0,4.036-5.339,8.203-2.474c4.167,2.865,2.213,13.672-11.328,18.229L396.88,141.951z"/>
				
					<linearGradient id="SVGID_00000144317967426206663710000005202250669613902248_" gradientUnits="userSpaceOnUse" x1="338.5799" y1="124.3013" x2="387.5811" y2="157.4355">
					<stop  offset="0" style="stop-color:#FFDADB"/>
					<stop  offset="1" style="stop-color:#FFB8B9"/>
				</linearGradient>
				<path style="fill:url(#SVGID_00000144317967426206663710000005202250669613902248_);" d="M347.554,120.658
					c0,0-3.325,21.068-3.325,21.917c0,0.85-4.2,14.102-4.2,14.102s0.7,7.306,3.763,12.573c3.063,5.267,9.538,11.893,11.638,13.082
					c2.1,1.189,19.601-2.306,28.526-11.177c8.925-8.871,11.375-13.289,13.475-24.162c2.1-10.874,3.325-24.466,0.175-29.053
					c-3.15-4.587-30.276-12.912-38.326-10.704C351.229,109.444,348.79,112.767,347.554,120.658z"/>
				<g>
					<path style="fill:#DD2929;" d="M355.988,169.368c-3.727,0-6.096-1.702-6.136-1.732c-0.2-0.148-0.242-0.431-0.095-0.631
						c0.148-0.2,0.433-0.243,0.632-0.096c0.246,0.182,6.147,4.378,14.161-1.631c0.199-0.15,0.483-0.11,0.633,0.09
						c0.149,0.2,0.109,0.483-0.091,0.633C361.639,168.592,358.503,169.368,355.988,169.368z"/>
				</g>
				<path style="fill:#FF6667;" d="M354.291,159.792c-0.046,0-0.093-0.007-0.139-0.022c-0.073-0.024-1.807-0.597-2.319-1.848
					c-0.23-0.563-0.185-1.157,0.132-1.767c0.389-0.745,0.914-1.215,1.56-1.398c0.441-0.124,0.86-0.087,1.189-0.008v-3.197
					c0-0.25,0.202-0.452,0.452-0.452c0.25,0,0.452,0.202,0.452,0.452v3.85c0,0.163-0.087,0.313-0.229,0.393
					c-0.14,0.08-0.314,0.078-0.455-0.006c-0.004-0.002-0.577-0.329-1.17-0.16c-0.395,0.114-0.729,0.431-0.997,0.944
					c-0.192,0.367-0.223,0.695-0.098,1.004c0.291,0.715,1.371,1.203,1.762,1.331c0.238,0.078,0.367,0.333,0.29,0.57
					C354.659,159.67,354.482,159.792,354.291,159.792z"/>
				<path style="fill:#200A72;" d="M372.857,143.012c-0.209,2.383-1.228,4.24-2.275,4.148c-1.047-0.092-1.726-2.098-1.517-4.481
					c0.209-2.383,1.228-4.24,2.275-4.148C372.387,138.622,373.066,140.629,372.857,143.012z"/>
				<path style="fill:#200A72;" d="M354.295,140.596c-0.187,2.127-1.096,3.784-2.03,3.702c-0.934-0.082-1.54-1.873-1.354-3.999
					c0.187-2.126,1.096-3.784,2.03-3.702C353.876,136.679,354.482,138.47,354.295,140.596z"/>
				<path style="fill:#200A72;" d="M367.679,138.339c0,0,5.863-0.525,11.769,1.969l0.394,0.744c0,0-6.519-2.669-12.163-2.188
					V138.339z"/>
				<path style="fill:#200A72;" d="M351.36,136.72c0,0,3.194-0.394,6.65,1.313l-0.131-0.525c0,0-2.931-1.619-6.475-1.181
					L351.36,136.72z"/>
				<path style="fill:#200A72;" d="M370.742,127.62c0,0,6.256-0.481,10.456,1.925c0,0-7.394-2.056-11.157-1.094L370.742,127.62z"/>
				<path style="fill:#200A72;" d="M358.584,126.501c0,0-5.508-0.798-9.368,0.812c0,0,6.666-1.121,9.938-0.112L358.584,126.501z"/>
				
					<linearGradient id="SVGID_00000149361715797057587320000007957295104308080017_" gradientUnits="userSpaceOnUse" x1="348.0814" y1="88.0593" x2="440.4842" y2="169.2618">
					<stop  offset="0" style="stop-color:#432B99"/>
					<stop  offset="1" style="stop-color:#090051"/>
				</linearGradient>
				<path style="fill:url(#SVGID_00000149361715797057587320000007957295104308080017_);" d="M403.789,111.505
					c-9.567-22.4-34.884-21.934-45.734-18.317c-10.85,3.617-23.217,0.233-23.217,0.233c-3.15,17.967,12.017,23.334,25.084,23.917
					c13.067,0.583,34.534,8.633,34.534,8.633s0.678,2.712,1.467,5.787c-0.285,5.162-0.903,14.985-1.584,17.197
					c0,0,4.123-5.712,6.087-12.705l-0.001-0.002C404.339,126.137,403.789,111.505,403.789,111.505z"/>
			</g>
			
				<linearGradient id="SVGID_00000140007701685239881660000007091555373526187703_" gradientUnits="userSpaceOnUse" x1="326.0795" y1="211.0014" x2="335.187" y2="195.9418">
				<stop  offset="0" style="stop-color:#FFDADB"/>
				<stop  offset="1" style="stop-color:#FFB8B9"/>
			</linearGradient>
			<path style="fill:url(#SVGID_00000140007701685239881660000007091555373526187703_);" d="M327.59,211.915
				c0,0,2.825-10.721,3.104-14.006c0.279-3.285,0.606-4.318,0.606-4.318s1.89,4.077,2.261,5.852
				c0.371,1.775-1.259,10.047-1.259,10.047L327.59,211.915z"/>
			<g>
				
					<linearGradient id="SVGID_00000158739174296521474130000016576112067261010364_" gradientUnits="userSpaceOnUse" x1="285.0212" y1="315.5663" x2="307.319" y2="263.8669">
					<stop  offset="0" style="stop-color:#FFDADB"/>
					<stop  offset="1" style="stop-color:#FFB8B9"/>
				</linearGradient>
				<path style="fill:url(#SVGID_00000158739174296521474130000016576112067261010364_);" d="M315.932,271.643
					c0,0-10.072,33.932-12.095,37.827c-0.009,0.009-0.108-3.363-0.108-3.363c-2.014,3.838-8.6,13.783-12.079,12.318
					c-3.479-1.465-12.81-10.248-12.621-12.262c0.18-2.014,0.416-8.959,1.522-12.987c1.097-4.027,12.443-33.669,12.443-33.669
					l9.031,2.076l4.651,3.366L315.932,271.643z"/>
				
					<linearGradient id="SVGID_00000054239305437751746640000014899681362485350826_" gradientUnits="userSpaceOnUse" x1="305.1574" y1="263.2434" x2="330.409" y2="221.1575">
					<stop  offset="0" style="stop-color:#EB8831"/>
					<stop  offset="1" style="stop-color:#EB5E31"/>
				</linearGradient>
				<path style="fill:url(#SVGID_00000054239305437751746640000014899681362485350826_);" d="M324.955,201.197
					c0,0-20.225,30.005-31.961,58.311c0,0,13.907,6.831,22.934,15.615l17.81-44.221L324.955,201.197z"/>
				
					<linearGradient id="SVGID_00000085933217114503671080000015683363110131202229_" gradientUnits="userSpaceOnUse" x1="335.7924" y1="206.2655" x2="359.5175" y2="206.2655" gradientTransform="matrix(1.0961 -0.1368 0.1648 1.321 -69.2182 -17.3274)">
					<stop  offset="0" style="stop-color:#432B99"/>
					<stop  offset="1" style="stop-color:#090051"/>
				</linearGradient>
				<path style="fill:url(#SVGID_00000085933217114503671080000015683363110131202229_);" d="M360.01,232.22l-21.855,2.727
					c-1.146,0.143-2.19-0.67-2.333-1.816l-5.969-47.837c-0.143-1.146,0.67-2.191,1.816-2.333l21.855-2.727
					c1.146-0.143,2.19,0.67,2.333,1.816l5.969,47.837C361.969,231.032,361.156,232.077,360.01,232.22z"/>
				
					<linearGradient id="SVGID_00000082331871656098986840000001094592231258524581_" gradientUnits="userSpaceOnUse" x1="352.246" y1="200.816" x2="294.7892" y2="312.2529">
					<stop  offset="0" style="stop-color:#FFDADB"/>
					<stop  offset="1" style="stop-color:#FFB8B9"/>
				</linearGradient>
				<path style="fill:url(#SVGID_00000082331871656098986840000001094592231258524581_);" d="M365.084,207.778
					c-1.097,0.851-3.659-0.246-4.387-0.123c-0.737,0.123-6.835,0.123-7.563,0.615c-0.737,0.482-10.002,6.344-10.002,6.344
					s9.634-1.465,10.853-1.465c1.22,0,10.863,2.685,10.863,2.685s-2.08,1.948-2.931,1.948c-0.851,0-6.344-0.482-7.809-0.123
					c-1.465,0.369-10.73,3.905-10.73,3.905s6.703,1.588,7.072,1.711c0.369,0.123,8.055-0.123,8.055-0.123s3.167,0.851,3.044,1.22
					c-0.123,0.369-0.605,1.588-1.825,2.07c-1.22,0.492-7.45-0.359-8.783,0c-1.342,0.369-6.221,3.054-6.221,3.054l-4.207,6.864
					l-2.751,6.684c0,0-10.296,24.448-14.323,33.723c-0.529,1.22-0.955,2.174-1.229,2.78c-2.335,5.124-13.898,23.834-14.257,24.42
					c-0.009,0.009-0.009,0.009-0.009,0.009c-2.014,3.838-12.81,15.921-16.289,14.455c-1.352-0.567-3.593-2.241-5.805-4.198
					c-3.489-3.073-6.93-6.835-6.816-8.064c0,0,2.193-12.139,8.783-20.979c5.37-7.223,17.679-20.846,24.231-28.901
					c1.465-1.815,2.657-3.347,3.394-4.462c4.027-6.041,8.783-15.004,9.152-15.467c0.369-0.454,1.097-16.374,1.825-19.674
					c0.737-3.29,2.203-8.594,2.203-8.594s1.002-0.756,2.335-1.702c1.333-0.946,3.006-2.071,4.349-2.799
					c0,0,9.653-6.306,10.021-6.306c0.369,0,13.784-0.482,13.784-0.482s-0.728,1.342-2.07,1.947
					c-1.342,0.615-9.029,1.711-10.494,2.685c-1.465,0.974-5.852,4.878-5.852,4.878l8.046-2.316l9.643-0.728l5.852,1.825
					C364.233,205.093,366.181,206.927,365.084,207.778z"/>
				
					<linearGradient id="SVGID_00000090252618211975269080000018260239965396185502_" gradientUnits="userSpaceOnUse" x1="326.8005" y1="245.9715" x2="296.0194" y2="310.1133">
					<stop  offset="0" style="stop-color:#FF6667"/>
					<stop  offset="1" style="stop-color:#FF6667;stop-opacity:0"/>
				</linearGradient>
				<path style="opacity:0.5;fill:url(#SVGID_00000090252618211975269080000018260239965396185502_);" d="M332.033,250.615
					c0,0-3.942,12.366-8.594,26.15c-0.529,1.22-0.955,2.174-1.229,2.78c-2.335,5.124-13.898,23.834-14.257,24.42
					c-0.009,0.009-0.009,0.009-0.009,0.009c-2.014,3.838-12.81,15.921-16.289,14.455c-1.352-0.567-3.593-2.241-5.805-4.198
					c-0.407-2.269-0.719-6.117,0.983-8.906c2.562-4.207,13.359-8.783,18.114-14.455
					C309.702,285.198,332.033,250.615,332.033,250.615z"/>
			</g>
		</g>
	</g>
</g>
</svg>
